<svg t="1714155753508" class="icon" viewBox="0 0 2339 1024" version="1.1" xmlns="http://www.w3.org/2000/svg" p-id="1282" width="200" height="200"><path d="M23.985 881.247h2234.083V974.8H23.985z" fill="#92CAEE" p-id="1283"></path><path d="M625.524 426.96H466.816v-68.972H343.072v68.972H184.364c-23.866 0-43.078 69.092-43.078 89.736h526.958c0-20.644-18.973-89.736-42.72-89.736z m67.66 153.935h-576.6c-8.472 17.78-1.073 38.543 0 62.29 3.939 70.523 148.804 175.175 221.595 175.175h133.172c72.91 0 217.776-104.652 221.594-175.175 1.313-23.747 8.83-44.51 0.239-62.29z" fill="#F3D24F" p-id="1284"></path><path d="M188.182 639.366c-1.312-21.718-8.233-41.288-3.341-58.471h-67.66c-9.665 17.78-1.312 38.543 0 62.29 4.296 70.523 167.777 175.175 249.876 175.175h40.214c-91.168-26.61-215.15-115.63-219.089-178.994z" fill="#BFAD65" p-id="1285"></path><path d="M253.336 556.79H116.585a24.582 24.582 0 0 0-23.15 17.661c-25.656 95.464 47.135 172.67 120.761 220.76 62.648 40.93 119.33 47.73 190.927 47.73 68.734 0 123.625-4.892 184.483-43.077 75.893-48.09 153.1-127.205 126.37-225.413a24.701 24.701 0 0 0-23.27-17.66h-245.46c-30.906 0-30.906 47.731 0 47.731h245.938l-23.15-17.66c23.866 88.303-73.746 160.14-143.195 190.926-40.334 18.377-79.354 15.632-122.313 15.632s-81.979 2.626-122.193-15.632c-69.092-31.264-167.06-103.1-143.195-190.927l-22.553 18.02h136.751c30.906 0 31.026-47.733 0-47.733z" fill="#49494A" p-id="1286"></path><path d="M310.256 604.88c30.906 0 31.026-47.732 0-47.732s-31.026 47.732 0 47.732zM177.92 403.69c-43.197 11.934-57.755 74.104-60.62 113.006a23.866 23.866 0 0 0 23.867 23.866h324.217c30.906 0 31.026-47.732 0-47.732H141.286l23.866 23.866c1.909-15.513 8.71-61.932 25.775-66.586 29.713-8.353 17.064-54.772-12.768-46.42z" fill="#49494A" p-id="1287"></path><path d="M236.51 450.945c30.907 0 31.026-47.731 0-47.731s-31.025 47.731 0 47.731z" fill="#49494A" p-id="1288"></path><path d="M552.614 540.68h115.63a23.866 23.866 0 0 0 23.866-23.865c-3.222-44.748-19.928-108.112-71.598-113.84s-103.816 0-154.293 0l23.866 23.866v-68.853a23.866 23.866 0 0 0-23.866-23.866H343.072a23.866 23.866 0 0 0-23.866 23.866v68.972l23.866-23.866H291.76c-30.906 0-30.906 47.732 0 47.732h51.312a23.866 23.866 0 0 0 23.865-23.866v-68.972l-23.865 23.866h123.744l-23.866-23.866v68.972a23.866 23.866 0 0 0 23.866 23.866h108.351c8.234 0 39.975-5.012 47.732 0 12.768 8.472 20.644 50.118 21.837 65.75l23.866-23.865H552.614c-30.906 0-31.026 47.731 0 47.731z m1705.454 316.462H23.866A24.462 24.462 0 0 0 0 881.008v93.554a23.866 23.866 0 0 0 23.866 23.866h2234.202a23.866 23.866 0 0 0 23.866-23.866v-93.315c0-30.907-47.732-31.026-47.732 0V974.8l23.866-23.866H23.866L47.732 974.8v-93.554l-23.866 23.865h2234.202c30.906 0.12 31.025-47.97 0-47.97z" fill="#49494A" p-id="1289"></path><path d="M2066.902 494.023c-21.36 0-40.452-14.558-53.698 0a72.552 72.552 0 0 0-107.396 0c-13.365-14.558-32.458 0-53.698 0a72.79 72.79 0 0 0-68.495 47.732v17.66h352.379v-17.54a72.91 72.91 0 0 0-69.092-47.852z" fill="#0F7888" p-id="1290"></path><path d="M2172.628 627.433h-426.244v50c1.193 56.8 119.33 140.927 178.158 140.927h69.57c58.59 0 176.965-83.53 178.158-140.928 0.477-18.734 0.358-30.429 0.358-49.999z" fill="#F3D24F" p-id="1291"></path><path d="M2040.53 788.29h-69.568c-58.591 0-176.966-84.128-178.16-140.81v-20.047h-45.583v50c1.193 56.8 119.33 140.927 178.159 140.927h69.569c30.429 0 76.967-22.792 114.914-52.505a160.737 160.737 0 0 1-69.33 22.434z" fill="#BFAD65" p-id="1292"></path><path d="M1967.024 603.329h-220.64a24.582 24.582 0 0 0-23.866 23.866v49.999c0 30.906 48.567 31.025 47.732 0v-50l-23.866 23.866h220.64c30.906 0 31.025-47.731 0-47.731z" fill="#49494A" p-id="1293"></path><path d="M1805.094 792.227c67.66 47.732 158.708 69.688 238.658 39.14a309.42 309.42 0 0 0 114.914-78.4c35.8-39.617 37.947-73.864 37.828-125.534a23.866 23.866 0 0 0-23.866-23.866h-127.444c-30.906 0-31.025 47.732 0 47.732h127.444l-23.866-23.866c0 49.641-4.892 77.087-43.794 110.977-26.61 23.269-61.574 47.015-96.656 54.056a230.425 230.425 0 0 1-178.994-41.646c-25.417-17.78-49.522 23.866-23.866 41.407z m-31.503-36.873c30.906 0 30.906-47.731 0-47.731s-31.026 47.731 0 47.731z m256.558-278.037a99.401 99.401 0 0 0-141.405 0l29.116-3.7c-28.162-18.257-80.667-7.278-109.186 7.28a85.201 85.201 0 0 0-49.164 78.996c0 30.906 47.732 31.026 47.732 0 0-21.002 10.143-30.906 32.1-38.185 9.188-2.984 44.748-11.933 53.936-6.683a23.866 23.866 0 0 0 29.116-3.7 50.476 50.476 0 0 1 73.388 0c22.673 21.003 56.681-12.887 34.009-34.008z m23.985 106.203h81.86a23.866 23.866 0 0 0 23.866-23.866v-17.78c0-30.906-47.732-30.906-47.732 0v17.66l23.866-23.865h-81.263c-30.907 0-30.907 47.732 0 47.732z m41.05-176.965v-136.87c0-30.907-47.732-31.026-47.732 0v136.87c0 30.906 47.731 30.906 47.731 0z m-23.986-181.261c30.906 0 31.026-47.732 0-47.732s-31.026 47.732 0 47.732z m-173.027 181.26v-136.87c0-30.906-47.732-31.025-47.732 0v136.87c0 30.907 47.732 30.907 47.732 0z m92.957-68.494V201.308c0-30.906-47.732-31.025-47.732 0V338.06c0 31.025 47.732 31.025 47.732 0z m0-200.354V99.282a23.866 23.866 0 0 0-47.732 0v38.424a23.866 23.866 0 0 0 23.866 23.866 24.582 24.582 0 0 0 23.866-23.866z m-117.062 55.369c31.026 0 31.026-47.732 0-47.732s-30.906 47.732 0 47.732z" fill="#49494A" p-id="1294"></path><path d="M1319.543 118.136a230.305 230.305 0 0 1 114.675 30.31 329.11 329.11 0 0 0-34.128-27.327 314.433 314.433 0 0 0-68.017-35.799 53.102 53.102 0 0 0-85.201-19.33h-5.012a53.22 53.22 0 0 0-95.464 7.875 52.863 52.863 0 0 0-29.116-8.711 53.46 53.46 0 0 0-51.312 39.856 51.908 51.908 0 0 0-21.956-4.893 53.579 53.579 0 0 0-53.58 53.58 47.732 47.732 0 0 0 1.075 10.261l-3.103 3.222h-5.012c-29.593 0-85.32 45.226-60.38 107.397h177.204a232.453 232.453 0 0 1 219.327-156.441z" fill="#ECEBEB" p-id="1295"></path><path d="M1239.115 150.713c30.906 0 31.026-47.732 0-47.732s-31.026 47.732 0 47.732z m-76.251 56.8a223.384 223.384 0 0 1 37.588-33.77 24.582 24.582 0 0 0 8.592-32.815 23.866 23.866 0 0 0-32.815-8.711 274.457 274.457 0 0 0-47.732 41.288 23.866 23.866 0 0 0 34.009 34.009z" fill="#49494A" p-id="1296"></path><path d="M1460.948 275.65a155.128 155.128 0 0 0-282.81 0z" fill="#0F7888" p-id="1297"></path><path d="M1319.543 159.424a184.483 184.483 0 0 0-162.05 104.174 23.866 23.866 0 0 0 20.764 35.8h282.81c30.907 0 30.907-47.733 0-47.733h-282.93l20.764 35.8a136.274 136.274 0 0 1 120.642-80.31c30.787-1.55 31.026-49.64 0-47.731z" fill="#49494A" p-id="1298"></path><path d="M1599.012 347.248H862.751c-59.665 0-110.5 79.354-84.366 128.398 39.736 74.223 94.628 181.38 132.455 257.513 22.434 45.464 62.529 85.201 121.835 85.201h396.532c59.664 0 99.4-39.737 121.954-85.201 37.708-76.132 92.719-183.29 132.336-257.513 26.253-49.044-24.82-128.398-84.485-128.398z" fill="#92CAEE" p-id="1299"></path><path d="M1027.425 750.342c-42.123-84.843-89.616-190.21-133.887-273.025-19.093-35.799-35.203-99.52-2.148-130.069h-28.64c-59.664 0-110.498 79.354-84.365 128.398 39.736 74.223 94.628 181.38 132.455 257.513 22.434 45.464 62.529 85.201 121.835 85.201h29.355c-10.978-21.002-21.717-41.884-34.605-68.018z" fill="#5DA1D3" p-id="1300"></path><path d="M1222.17 323.263h-93.912c-30.906 0-30.906 47.732 0 47.732h93.912c30.907 0 31.026-47.732 0-47.732zM1706.41 482.09c21.24-53.22-7.996-116.226-56.443-144.269-30.668-17.78-64.2-14.558-98.208-14.558H1305.7c-30.906 0-30.906 47.732 0 47.732h173.147c34.247 0 68.972-1.67 103.1 0 50 2.625 100.833 41.765 78.4 98.088-11.934 28.759 34.963 41.169 46.3 12.769z m-429.586 360.255c59.665 0 126.131 9.308 184.364-3.699 47.732-10.62 83.53-44.63 107.396-86.633 37.35-65.87 68.257-136.035 103.578-202.86 14.439-27.326-27.088-51.67-41.527-23.866q-42.839 81.264-83.53 163.6c-26.968 54.176-53.937 102.266-121 105.965-49.402 2.745-99.64 0-149.162 0-30.906 0-30.906 47.732 0 47.732z m-71.597 0c30.906 0 30.906-47.731 0-47.731s-31.026 47.731 0 47.731z m-165.749-519.082c-57.874 0-117.658-4.415-175.294 0-83.53 6.324-140.212 95.463-102.743 171.715 29.594 60.738 62.887 119.33 93.316 180.068 23.865 47.731 44.39 102.861 88.661 136.632 57.278 43.794 138.422 30.667 206.082 30.667 31.025 0 31.025-47.731 0-47.731-44.987 0-99.76 8.83-143.195-3.58-54.056-15.394-75.536-70.763-97.612-115.63q-35.798-71.598-73.148-143.195c-23.866-46.897-65.512-104.772-8.115-146.417 24.94-18.139 50.238-15.036 79.235-15.036h132.813c30.907 0 31.026-47.732 0-47.732z" fill="#49494A" p-id="1301"></path><path d="M1572.163 275.65a6.682 6.682 0 0 0-1.551 0z" fill="#ECEBEB" p-id="1302"></path><path d="M1650.92 202.86a76.49 76.49 0 0 0-72.313-80.428h-3.46a74.58 74.58 0 0 0 4.772-22.673 76.49 76.49 0 0 0-152.86-7.995 10.262 10.262 0 0 1 0 1.91 296.772 296.772 0 0 1 34.725 23.03 318.728 318.728 0 0 1 110.498 158.589 76.37 76.37 0 0 0 78.638-72.433z" fill="#BFAD65" p-id="1303"></path><path d="M1455.817 7.756a101.31 101.31 0 0 0-52.624 86.275c0 30.907 47.732 30.907 47.732 0a52.624 52.624 0 0 1 28.758-44.748c26.968-15.155 2.864-56.681-23.866-41.527z m73.149 39.976c30.906 0 30.906-47.732 0-47.732s-31.026 47.732 0 47.732z m43.197 251.904a102.027 102.027 0 0 0 102.743-101.191 101.31 101.31 0 0 0-99.76-99.64l23.27 30.429a181.738 181.738 0 0 0 5.489-29.117c3.938-30.548-44.152-30.31-47.732 0l-3.819 16.348a23.866 23.866 0 0 0 22.792 30.43c70.047 0 65.154 102.622-2.864 104.651-30.906 0.955-31.025 49.044 0 47.732z m-537.698-1.313h65.75c30.907 0 31.026-47.732 0-47.732h-65.75c-30.906 0-31.025 47.732 0 47.732z" fill="#49494A" p-id="1304"></path><path d="M1200.93 16.467a91.168 91.168 0 0 0-42.243 13.007 109.664 109.664 0 0 0-19.57 23.866h23.866c-50.118-23.866-95.463-5.847-115.988 45.226l29.474-16.706a79.115 79.115 0 0 0-80.786 15.155 76.013 76.013 0 0 0-22.314 35.798 60.858 60.858 0 0 0-2.864 20.644c-1.313-5.727 33.412-13.126 5.966-9.665-63.721 8.114-88.78 83.53-72.552 136.154a24.582 24.582 0 0 0 23.627 18.377h40.93c30.907 0 30.907-47.732 0-47.732h-40.93l23.15 17.661c-8.233-27.088-4.057-57.875 23.866-71.597 9.188-4.535 19.69-1.552 27.565-6.325 30.548-18.257 11.933-78.041 61.932-60.977a24.701 24.701 0 0 0 29.594-16.706c7.637-18.496 49.88-11.933 66.824-15.394 18.854-3.818 11.336-27.923 40.333-31.503s30.668-51.908 0-47.731z m156.56 57.16a78.041 78.041 0 0 0-70.285-45.107c-30.906-0.836-30.906 47.731 0 47.731a30.787 30.787 0 0 1 28.758 21.36 23.866 23.866 0 0 0 32.816 8.711 24.701 24.701 0 0 0 8.71-32.935z" fill="#49494A" p-id="1305"></path><path d="M937.331 103.34a117.062 117.062 0 0 1 46.539-59.665 119.33 119.33 0 0 0-26.253-3.103 118.017 118.017 0 0 0-99.759 181.261 137.945 137.945 0 0 1 23.866-68.614 150.474 150.474 0 0 1 55.607-49.88z" fill="#F3D24F" p-id="1306"></path><path d="M857.858 245.818c30.906 0 30.906-47.731 0-47.731s-31.026 47.731 0 47.731zM990.433 20.286a144.27 144.27 0 0 0-175.056 138.303c-1.074 31.025 47.016 30.906 47.732 0a95.463 95.463 0 0 1 113.959-91.884c30.19 5.728 43.197-40.572 12.768-46.419z m-9.308 406.674a31.264 31.264 0 0 1-62.409 0c-1.67-30.787-49.76-31.025-47.732 0a79.354 79.354 0 0 0 158.589 0c1.67-30.906-46.42-30.906-47.732 0z m181.5 0a31.264 31.264 0 0 1-62.41 0c-1.67-30.787-49.76-31.025-47.73 0a79.354 79.354 0 0 0 158.588 0c1.67-30.906-46.42-30.906-47.732 0z m181.5 0a31.264 31.264 0 0 1-62.41 0c-1.67-30.787-49.76-31.025-47.731 0a79.354 79.354 0 0 0 158.589 0c1.67-30.906-46.42-30.906-47.732 0z m181.5 0a31.264 31.264 0 0 1-62.41 0c-1.67-30.787-49.76-31.025-47.731 0a79.354 79.354 0 0 0 158.588 0c1.671-30.906-46.419-30.906-47.731 0z m-148.207 298.443h-100.595c-30.906 0-30.906 47.731 0 47.731h100.953c30.906 0 31.025-47.731 0-47.731z m66.466 48.09c31.026 0 31.026-47.732 0-47.732s-30.906 47.731 0 47.731z" fill="#49494A" p-id="1307"></path><path d="M1005.23 450.945h71.597c30.907 0 30.907-47.731 0-47.731h-71.597c-30.907 0-31.026 47.731 0 47.731z m180.426 0h71.597c30.906 0 31.026-47.731 0-47.731h-71.597c-30.907 0-31.026 47.731 0 47.731z m182.573 0h71.598c30.906 0 30.906-47.731 0-47.731h-71.598c-30.906 0-31.025 47.731 0 47.731z m248.683 0c31.025 0 31.025-47.731 0-47.731s-30.907 47.731 0 47.731zM260.496 368.131V122.909a24.94 24.94 0 0 0-17.542-23.15l-71.597-30.07a23.866 23.866 0 0 0-28.162 11.097l-34.725 64.2c-14.916 27.087 26.61 51.43 41.408 23.865l35.798-64.2-27.207 11.098 71.598 29.952-17.542-22.792v245.222c0 30.906 47.732 30.906 47.732 0z" fill="#49494A" p-id="1308"></path></svg>