<svg t="1714155445965" class="icon" viewBox="0 0 1189 1024" version="1.1" xmlns="http://www.w3.org/2000/svg" p-id="1789" width="200" height="200"><path d="M669.233548 672.867097c0 16.185806 7.068903 30.455742 21.173678 42.776774 14.104774 12.321032 31.843097 24.113548 53.181935 35.278452 21.371871 11.164903 44.593548 21.768258 69.764129 31.777032 25.170581 10.008774 48.42529 21.008516 69.797162 32.933161 21.338839 11.957677 39.077161 25.071484 53.181935 39.308387 14.104774 14.269935 21.140645 31.050323 21.140645 50.308129 0 13.113806-10.669419 25.633032-32.04129 37.557678-21.338839 11.957677-49.548387 22.957419-84.628645 32.966193-35.047226 10.008774-75.47871 17.936516-121.228387 23.717162a1121.379097 1121.379097 0 0 1-140.684387 8.654451c-54.899613 0-103.490065-2.873806-145.804388-8.654451-42.347355-5.780645-77.790968-13.510194-106.36387-23.122581-28.605935-9.645419-50.341161-20.645161-65.205678-32.966194-14.864516-12.321032-22.296774-24.675097-22.296774-36.996129 0-19.257806 7.035871-36.005161 21.140645-50.308129 14.104774-14.236903 31.843097-27.152516 53.181936-38.713806a607.463226 607.463226 0 0 1 69.20258-31.810065c24.774194-9.612387 47.863742-19.819355 69.202581-30.620903 21.338839-10.801548 39.077161-22.561032 53.181935-35.245419 14.104774-12.750452 21.140645-27.94529 21.140645-45.683613s-3.633548-34.287484-10.83458-49.713549a317.638194 317.638194 0 0 0-27.449807-46.806709l-36.038193-51.464258a437.347097 437.347097 0 0 1-36.005161-62.430968c-11.098839-23.122581-20.248774-49.713548-27.482839-79.772903-7.267097-30.059355-10.867613-64.743226-10.867613-104.051613 0-85.553548 15.855484-153.6 47.467355-204.073291C456.704 25.269677 505.723871 0 572.052645 0c55.659355 0 99.493161 8.48929 131.50142 25.434839 32.04129 16.945548 56.253935 38.713806 72.670967 65.337806 16.350968 26.557935 26.657032 55.857548 30.852129 87.865807 4.195097 31.975226 6.276129 63.388903 6.276129 94.208 0 41.620645-3.633548 77.460645-10.867613 107.52-7.234065 30.059355-16.185806 56.253935-26.855225 78.616774-10.669419 22.362839-22.131613 42.182194-34.320517 59.557161-12.221935 17.308903-23.651097 33.891097-34.320516 49.713548a304.788645 304.788645 0 0 0-26.855225 48.55742c-7.267097 16.549161-10.900645 35.245419-10.900646 56.055742z" fill="#62B863" p-id="1790"></path><path d="M423.341419 657.837419c0 14.63329-6.276129 26.590968-18.861419 35.84-12.552258 9.249032-28.407742 18.101677-47.467355 26.590968-19.059613 8.48929-39.63871 18.101677-61.770322 28.903226-22.131613 10.801548-42.28129 25.434839-60.614194 43.932903h-21.735226c-31.248516 0-58.500129-3.303226-81.754838-9.843613-23.25471-6.540387-42.908903-15.194839-58.929549-25.996387-15.987613-10.801548-28.011355-22.924387-36.005161-36.401548a79.607742 79.607742 0 0 1-12.023742-41.059097c0-16.185806 8.390194-29.299613 25.170581-39.308387a440.32 440.32 0 0 1 55.494193-27.747097 578.85729 578.85729 0 0 0 55.461161-26.590968c16.747355-9.249032 25.137548-21.20671 25.137549-35.84 0-14.63329-4.558452-28.143484-13.708387-40.464516-9.149935-12.321032-19.257806-26.425806-30.323613-42.182193a313.079742 313.079742 0 0 1-30.290581-55.494194c-9.149935-21.20671-13.741419-48.392258-13.741419-81.523613 0-23.882323 2.477419-47.004903 7.432258-69.367742 4.954839-22.362839 12.387097-42.017032 22.296774-58.96258 9.909677-16.945548 22.494968-30.455742 37.755871-40.464516 15.260903-10.008774 33.164387-15.029677 53.743484-15.029678 27.449806 0 50.341161 4.624516 68.641032 13.873548-4.591484 27.747097-6.87071 56.650323-6.87071 86.709678 0 48.557419 3.996903 89.781677 12.023742 123.705806 7.993806 33.924129 18.101677 63.19071 30.290581 87.865807-11.429161 15.426065-22.131613 29.861161-32.04129 43.371355-9.909677 13.477161-14.864516 29.464774-14.864516 47.962838 0 10.008774 5.351226 18.696258 16.020645 26.02942 10.702452 7.300129 23.452903 14.236903 38.317419 20.810322 14.864516 6.540387 30.72 13.278968 47.467355 20.215742 16.780387 6.936774 31.644903 14.269935 44.593548 21.966452 0.792774 3.864774 1.156129 10.008774 1.156129 18.498064zM990.637419 550.317419c0 8.48929 4.39329 16.185806 13.146839 23.122581 8.786581 6.936774 19.654194 13.477161 32.602839 19.654194 12.981677 6.177032 27.251613 12.155871 42.908903 17.936516 15.624258 5.747613 29.927226 11.924645 42.875871 18.498064 12.981677 6.540387 23.816258 13.873548 32.602839 21.966452 8.753548 8.092903 13.146839 17.507097 13.146838 28.308645 0 16.945548-5.714581 31.975226-17.176774 45.089032-11.396129 13.113806-26.657032 24.113548-45.716645 32.933162a275.75329 275.75329 0 0 1-65.767226 20.248774c-24.774194 4.624516-50.142968 7.333161-76.07329 8.092903a272.317935 272.317935 0 0 0-68.608-34.122323 2652.391226 2652.391226 0 0 0-69.202581-21.966451 329.232516 329.232516 0 0 1-56.055742-21.966452c-15.624258-8.092903-24.972387-19.819355-28.011355-35.245419 3.038968-14.63329 12.948645-26.590968 29.729033-35.84a550.978065 550.978065 0 0 1 54.338064-26.02942 421.16129 421.16129 0 0 0 52.620387-25.996387c15.624258-9.249032 23.452903-20.810323 23.452904-34.683871 0-16.185806-6.110968-31.050323-18.299871-44.527484-12.221935-13.477161-24.774194-29.068387-37.755871-46.806709 12.221935-26.987355 22.296774-58.962581 30.29058-95.95871 8.026839-36.996129 12.023742-80.532645 12.023742-130.642581 0-10.801548-0.561548-21.570065-1.717677-32.371612a937.389419 937.389419 0 0 0-3.996903-32.371613c19.819355-13.873548 37.755871-20.810323 53.743483-20.810323 35.84 0 64.412903 5.945806 85.784775 17.903484 21.338839 11.957677 37.557677 26.789161 48.623484 44.527484 11.032774 17.738323 18.299871 36.797935 21.735225 57.244903 3.402323 20.413935 5.12 39.110194 5.12 56.055742 0 34.683871-5.516387 62.629161-16.582193 83.802839a284.638968 284.638968 0 0 1-36.599742 54.932645c-13.345032 15.426065-25.533935 29.662968-36.599742 42.776774a69.466839 69.466839 0 0 0-16.582194 46.245161z" fill="#62B863" opacity=".6" p-id="1791"></path></svg>