<svg t="1714155431177" class="icon" viewBox="0 0 1024 1024" version="1.1" xmlns="http://www.w3.org/2000/svg" p-id="1635" width="200" height="200"><path d="M719.0016 562.6368v204.2368c0 22.9376-17.3056 43.008-40.2432 44.4928-25.088 1.6384-45.9776-18.2272-45.9776-43.008v-205.7216c0-19.9168-16.128-36.0448-36.0448-36.0448h-1.6384c-19.9168 0-36.0448 16.128-36.0448 36.0448v56.3712c0 17.1008-13.1584 31.9488-30.208 32.4608-17.664 0.512-32.1536-13.6192-32.1536-31.1808v-57.7024c0-19.9168-16.128-36.0448-36.0448-36.0448H153.6c-5.9904 0-10.8032 4.864-10.8032 10.8032 0 47.9744 8.4992 93.952 24.064 136.4992 2.7136 7.424 5.632 14.7456 8.8064 21.9136a400.47616 400.47616 0 0 0 17.8176 35.84c5.376 9.6256 11.1616 18.944 17.3568 28.0576 4.6592 6.8608 9.472 13.568 14.5408 20.0704 72.6016 94.0544 186.4192 154.624 314.4192 154.624 219.2384 0 397.0048-177.7152 397.0048-397.0048 0-5.9904-4.864-10.8032-10.8032-10.8032h-170.9056c-19.968 0.0512-36.096 16.1792-36.096 36.096zM894.1568 115.8144c-87.1424 27.8016-156.3648 91.392-201.8304 144.3328 1.5872 2.4576 3.1232 4.9152 4.5568 7.4752a110.4384 110.4384 0 0 1 65.8944 45.2608c13.312 1.3824 25.856 5.1712 37.3248 10.8544 76.4928-67.7888 101.5808-119.4496 122.9824-177.92 6.656-18.176-10.4448-35.8912-28.928-30.0032z" fill="#FFC31A" p-id="1636"></path><path d="M894.976 115.6096c-28.7744 61.3888-88.2176 174.4384-142.4384 184.576 3.6864 3.9936 7.168 8.1408 10.2912 12.6464 13.312 1.3824 25.856 5.1712 37.3248 10.8544 76.4928-67.7888 101.5808-119.4496 122.9824-177.92 6.5024-17.8688-9.984-35.2768-28.16-30.1568z" fill="#F48806" p-id="1637"></path><path d="M912.5888 526.592c-6.656-22.1696-19.6096-41.5744-36.7616-56.2688 1.8944-8.448 2.9184-17.152 2.9184-26.1632 0-61.5936-46.7456-112.2816-106.6496-118.528-16.4864-24.064-41.6256-41.728-70.912-48.64-26.9312-47.5648-77.9776-79.6672-136.4992-79.6672-77.7216 0-142.1824 56.5248-154.624 130.7136-11.4688 4.608-22.1184 10.8032-31.6416 18.3808-21.9648-25.4976-55.552-40.6528-92.5696-37.1712-50.432 4.7616-91.4432 45.1584-96.9728 95.488-2.816 25.856 3.4816 50.1248 16.128 70.0416a119.62368 119.62368 0 0 0-32.4096 51.8144h288c19.9168 0 36.0448 16.128 36.0448 36.0448v56.3712c0 17.1008 13.1584 31.9488 30.208 32.4608 17.664 0.512 32.1536-13.6192 32.1536-31.1808v-57.7024c0-19.9168 16.128-36.0448 36.0448-36.0448h1.6384c19.9168 0 36.0448 16.128 36.0448 36.0448v204.2368c0 22.9376 17.3056 43.008 40.2432 44.4928 25.088 1.6384 45.9776-18.2272 45.9776-43.008v-205.7216c0-19.9168 16.128-36.0448 36.0448-36.0448h157.5936z" fill="#FFE8D2" p-id="1638"></path><path d="M771.072 526.592h141.568c-6.656-22.1696-19.6096-41.5744-36.7616-56.2688 1.8944-8.448 2.9184-17.152 2.9184-26.1632 0-61.5936-46.7456-112.2816-106.6496-118.528-16.4864-24.064-41.6256-41.728-70.912-48.64a157.51168 157.51168 0 0 0-70.0416-64.8192l7.2704 47.5136s55.552 38.9632 53.3504 82.944c48.384 13.312 117.8624 67.584 79.2576 183.9616z" fill="#E8AD80" p-id="1639"></path><path d="M539.8016 934.4c219.2384 0 397.0048-177.7152 397.0048-397.0048 0-5.9904-4.864-10.8032-10.8032-10.8032h-99.9936c2.5088 96.6656-26.6752 389.5808-477.4912 358.7072 56.6784 31.2832 121.9072 49.1008 191.2832 49.1008z" fill="#F48806" p-id="1640"></path><path d="M915.5584 127.0272c5.9904-16.4352 2.2528-34.4064-9.7792-47.0016-12.1344-12.6464-30.0544-17.152-46.7968-11.8272-46.7968 14.9504-93.0304 40.2432-137.472 75.3152a20.50048 20.50048 0 0 0-3.3792 28.7744 20.50048 20.50048 0 0 0 28.7744 3.3792c40.5504-32 82.432-55.04 124.5184-68.4544 2.304-0.768 3.8912 0.2048 4.7616 1.1264 1.2288 1.28 1.536 2.816 0.9216 4.5568-20.1728 55.04-43.1104 106.3936-116.8896 174.2848-1.4848-0.5632-3.0208-1.024-4.5568-1.4848-1.6896-0.5632-3.4304-1.1264-5.1712-1.6384-1.6384-0.4608-3.2768-0.9216-4.9152-1.3312-3.2256-0.8192-6.4512-1.536-9.728-2.0992-0.1536-0.0512-0.3072-0.0512-0.4608-0.1024-2.048-2.6112-4.2496-5.12-6.4512-7.5776-0.6656-0.7168-1.3312-1.4336-1.9968-2.0992-1.5872-1.6896-3.2256-3.328-4.9152-4.9664-0.8192-0.8192-1.6896-1.5872-2.56-2.3552-1.5872-1.4848-3.2256-2.8672-4.9152-4.2496-0.9216-0.768-1.792-1.4848-2.7136-2.2016-1.792-1.3824-3.6352-2.7648-5.4784-4.0448-0.8192-0.5632-1.6384-1.1776-2.4576-1.7408-2.6112-1.792-5.3248-3.4816-8.0384-5.0688-0.1024-0.0512-0.1536-0.1024-0.256-0.1536-2.816-1.6384-5.7344-3.1744-8.704-4.608-0.9216-0.4608-1.8432-0.8192-2.7648-1.28-1.4848-0.6656-2.9184-1.3824-4.4544-2.048 4.7104-5.12 9.8304-10.2912 17.2032-17.4592a20.52096 20.52096 0 0 0 0.512-28.9792 20.52096 20.52096 0 0 0-28.9792-0.512c-8.192 7.8848-13.9264 13.7728-19.1488 19.5072-33.3312-37.5296-81.4592-59.8528-132.6592-59.8528-83.1488 0-154.0608 56.8832-172.6464 136.8064-3.84 1.8944-7.5776 3.9424-11.264 6.1952-26.4192-22.9376-61.44-34.3552-96.8704-30.976-60.2624 5.7344-108.8 53.504-115.4048 113.664-2.6624 24.064 1.28 47.6672 11.3664 69.0176a139.38688 139.38688 0 0 0-21.4528 34.56H94.72c-11.3152 0-20.48 9.1648-20.48 20.48v10.8032c0 41.8304 6.1952 83.1488 18.3808 122.7776a20.5056 20.5056 0 0 0 19.5584 14.4896c1.9968 0 4.0448-0.3072 6.0416-0.9216 10.8032-3.328 16.896-14.7968 13.568-25.6a376.576 376.576 0 0 1-16.4352-101.12h297.216c8.6016 0 15.5648 6.9632 15.5648 15.5648v57.7024c0 14.08 5.5808 27.2896 15.6672 37.0688 10.1376 9.8304 23.4496 14.9504 37.5296 14.5408 27.648-0.8192 50.1248-24.576 50.1248-52.9408V536.576c0-8.6016 7.0144-15.5648 15.5648-15.5648h1.6384c8.6016 0 15.5648 6.9632 15.5648 15.5648v70.5024c0 11.3152 9.1648 20.48 20.48 20.48s20.48-9.1648 20.48-20.48V536.576c0-31.1808-25.344-56.5248-56.5248-56.5248h-1.6384c-31.1808 0-56.5248 25.344-56.5248 56.5248v56.3712c0 6.3488-4.7616 11.8272-10.3424 12.032-3.7888 0.2048-6.6048-1.8432-7.7824-3.0208-1.2288-1.1776-3.2768-3.7376-3.2768-7.68V536.576c0-31.1808-25.344-56.5248-56.5248-56.5248H156.928c4.0448-5.9392 8.704-11.4176 13.9776-16.384 7.168-6.7072 8.5504-17.6128 3.2768-25.9072-10.752-16.9472-15.2576-36.608-13.056-56.832 4.5056-40.9088 37.5296-73.472 78.5408-77.312 28.928-2.7136 56.2688 8.2432 75.1104 30.1568a20.50048 20.50048 0 0 0 28.2624 2.7136c8.0896-6.4 16.9984-11.6224 26.5216-15.4112a20.44416 20.44416 0 0 0 12.544-15.616c11.0592-65.8432 67.584-113.6128 134.4512-113.6128 48.7424 0 93.952 26.2656 118.272 68.608 0.1536 0.256 0.3072 0.4608 0.4096 0.7168 0.4608 0.768 1.024 1.4336 1.536 2.1504 0.3072 0.4096 0.5632 0.8704 0.9216 1.28 0.5632 0.6656 1.28 1.2288 1.9456 1.792 0.4096 0.3584 0.7168 0.768 1.1264 1.0752 0.6144 0.4608 1.3312 0.8192 1.9968 1.2288 0.512 0.3072 1.024 0.6656 1.5872 0.9728 1.28 0.6144 2.6112 1.0752 3.9936 1.3824 23.9104 5.632 44.7488 19.968 58.6752 40.2944a20.5824 20.5824 0 0 0 14.7456 8.8064 98.79552 98.79552 0 0 1 33.1776 9.6768c0.256 0.1024 0.512 0.1536 0.768 0.256a98.46784 98.46784 0 0 1 54.3232 88.2176c0 7.2192-0.8192 14.5408-2.4064 21.7088-1.6384 7.424 0.9216 15.1552 6.7072 20.0704a101.7344 101.7344 0 0 1 17.9712 20.1728h-125.3888c-31.1808 0-56.5248 25.344-56.5248 56.5248v204.2368c0 12.4928-9.472 23.296-21.0432 24.064-6.2976 0.3584-12.3904-1.7408-16.9984-6.0416-4.608-4.3008-7.168-10.1888-7.168-16.4864v-57.7024c0-11.3152-9.1648-20.48-20.48-20.48s-20.48 9.1648-20.48 20.48v57.7024c0 17.5104 7.3216 34.4064 20.0704 46.3872 12.9536 12.1344 29.9008 18.2272 47.6672 17.0496 33.28-2.1504 59.392-30.6688 59.392-64.9216v-204.2368c0-8.6016 6.9632-15.5648 15.5648-15.5648H867.9936c-5.12 203.1616-172.032 366.848-376.3712 366.848-111.7184 0-216.9856-49.2032-288.8192-134.912a20.46464 20.46464 0 0 0-28.8256-2.56 20.46464 20.46464 0 0 0-2.56 28.8256c79.616 95.0784 196.3008 149.6064 320.2048 149.6064 230.1952 0 417.4848-187.2896 417.4848-417.4848v-10.8032c0-11.3152-9.1648-20.48-20.48-20.48h-9.9328a140.19584 140.19584 0 0 0-28.928-43.1616c0.8704-6.2464 1.28-12.544 1.28-18.7904 0-44.4928-20.736-84.2752-53.4528-109.8752 72.9088-69.9904 97.6384-125.8496 117.9648-181.4528z" fill="#293E40" p-id="1641"></path><path d="M157.9008 685.824a20.50048 20.50048 0 0 0-27.648-8.6528c-10.0352 5.2224-13.8752 17.6128-8.6528 27.648 1.9456 3.6864 3.8912 7.3216 5.9392 10.9056a20.39296 20.39296 0 0 0 17.8688 10.4448c3.3792 0 6.8096-0.8704 9.984-2.6112a20.48512 20.48512 0 0 0 7.8336-27.904c-1.792-3.2768-3.584-6.5536-5.3248-9.8304z" fill="#293E40" p-id="1642"></path><path d="M301.0048 781.824c-4.4544 0-8.9088-1.4336-12.6976-4.4032-3.2768-2.56-6.5024-5.2736-9.6256-8.0384-8.448-7.5264-9.216-20.48-1.7408-28.928a20.54144 20.54144 0 0 1 28.928-1.7408c2.5088 2.2528 5.12 4.4032 7.8336 6.5536a20.50048 20.50048 0 0 1 3.3792 28.7744 20.4288 20.4288 0 0 1-16.0768 7.7824z" fill="#FFFFFF" p-id="1643"></path><path d="M250.7264 718.1312c-6.3488 0-12.6464-2.9696-16.64-8.5504-39.424-54.8352-46.08-112.3328-46.336-114.7392a20.48 20.48 0 0 1 18.1248-22.5792 20.56704 20.56704 0 0 1 22.5792 18.1248c0.1024 0.9216 6.0928 49.7152 38.8608 95.2832a20.48 20.48 0 0 1-4.6592 28.5696c-3.6352 2.6624-7.7824 3.8912-11.9296 3.8912z" fill="#FFFFFF" p-id="1644"></path></svg>