<svg t="1714155327488" class="icon" viewBox="0 0 1024 1024" version="1.1" xmlns="http://www.w3.org/2000/svg" p-id="1160" width="200" height="200"><path d="M114.008576 246.8864a136.5504 136.5504 0 0 1 66.048 1.4336 551.1168 551.1168 0 0 1 124.8256 31.5392 119.296 119.296 0 0 0 27.2384 10.24c2.8672 0 6.656 3.8912 11.4688 11.52 6.7072 18.176 7.168 29.184 1.4848 33.024a9.6768 9.6768 0 0 0-4.352 8.6528c0 5.632 1.4848 7.1168 4.352 4.1984 4.7104-6.656 7.1168-7.1168 7.1168-1.3824a11.1104 11.1104 0 0 1-2.8672 10.24c-2.8672 6.656-2.6112 11.008 0.768 12.9536s3.84 4.7616 1.3824 8.5504a189.7984 189.7984 0 0 0-8.5504 46.08c-3.3792 26.7776-5.9904 45.4144-7.8848 55.9104s-1.4848 16.5376 1.4336 17.9712 4.3008 0.256 4.3008-3.6352a9.728 9.728 0 0 1 4.352-8.5504l1.3312 5.7856a126.0544 126.0544 0 0 1-2.816 24.3712c-2.8672 4.7616-5.12 7.1168-7.168 7.1168-2.8672-4.7104-5.12-3.7888-6.4512 2.8672a19.2 19.2 0 0 0 2.816 16.4864c3.3792 4.3008 2.6112 9.5232-2.0992 15.8208a53.6064 53.6064 0 0 0-9.2672 26.4704 79.4624 79.4624 0 0 1-15.8208 35.84 78.592 78.592 0 0 0-15.8208 31.5392 38.912 38.912 0 0 1-5.6832 17.152 208.7936 208.7936 0 0 0-15.8208 33.792c-8.1408 19.5584-13.4656 29.3888-15.8208 29.3888s-5.12 3.84-7.8848 11.4688a139.6736 139.6736 0 0 1-17.2544 30.1568 48.6912 48.6912 0 0 1-20.0192 18.6368c-7.7312 3.84-11.52 7.68-11.52 11.52a9.728 9.728 0 0 1-4.352 8.6016c-2.816 1.8944-10.24-1.2288-21.4528-9.3184a60.5184 60.5184 0 0 1-21.5552-22.2208c-2.8672-7.68-6.4512-9.5232-10.752-5.6832s-8.3968 1.6384-12.2368-6.5536a53.9136 53.9136 0 0 0-20.1216-21.504 36.9664 36.9664 0 0 1-14.336-33.6384 174.9504 174.9504 0 0 1 11.4688-87.4496 119.3984 119.3984 0 0 0 12.2368-33.024q3.5328-17.2544 12.2368-47.3088a669.0304 669.0304 0 0 0 20.0192-182.1696 298.4448 298.4448 0 0 0-6.4-63.0784 44.9024 44.9024 0 0 0-25.1392-27.2384c-16.2816-10.4448-16.7936-19.0464-1.4336-26.5728z m239.616 194.9696c-2.8672 0-3.328-1.3824-1.4848-4.3008s3.3792-4.1984 4.352-4.1984 1.4336 1.3312 1.4336 4.1984a3.7888 3.7888 0 0 1-4.3008 4.1472z m27.2384-41.5232c0-4.8128 0.4608-7.168 1.4848-7.168a10.6496 10.6496 0 0 1 0 12.8512c-1.024-0.1536-1.4848-1.9968-1.4848-5.8368z m71.68-126.2592a105.472 105.472 0 0 1 11.52-12.1856c1.8432-1.4848 4.7616-0.768 8.6016 2.0992l41.5744 25.6a346.4192 346.4192 0 0 1 63.232 44.544 5.5296 5.5296 0 0 0 5.6832 4.3008q4.3008 0 22.9888 18.6368l21.5552 21.504v37.3248a149.2992 149.2992 0 0 1-5.7344 51.6608 1043.8656 1043.8656 0 0 0-17.2544 136.2944c-0.8704 20.0192-4.3008 30.0544-10.24 30.0544s-9.984 8.1408-12.8512 24.3712-6.5024 25.856-10.8032 28.672a47.7696 47.7696 0 0 0-12.1344 25.088c-3.84 13.8752-7.2192 21.2992-10.24 22.272q-7.2192 2.8672-30.1568-19.4048a657.152 657.152 0 0 1-46.08-49.408c-10.24-11.52-17.2032-17.3056-20.0704-17.3056-5.6832 0-8.0384-7.168-7.168-21.504 0.9728-5.7344-0.8704-9.0624-5.7344-10.24q-11.52-4.3008 1.4848-81.92a780.1856 780.1856 0 0 0 13.6192-145.5104 226.6624 226.6624 0 0 0-9.3184-94.0032q-5.2224-5.2224 7.5776-21.0944zM705.163776 15.9232l7.168-15.8208 33.024 14.3872a199.0144 199.0144 0 0 0 43.0592 11.4688 148.48 148.48 0 0 1 68.864 35.84l46.08 37.3248a234.752 234.752 0 0 1 20.0704 19.4048 37.0176 37.0176 0 0 1 10.24 15.7184c0.9728 4.3008 0 6.912-2.8672 7.936a61.44 61.44 0 0 0-4.3008 31.488c0 18.176-1.4848 27.2384-4.352 27.2384s-4.2496 4.8128-4.2496 14.336c0 6.7072 1.4336 11.008 4.2496 13.0048 1.9968 0.9216 3.3792-0.512 4.352-4.352v-7.168c1.9456-4.7616 3.3792-7.168 4.3008-7.168a114.1248 114.1248 0 0 1-1.4336 29.44q-2.8672 23.6032-13.6192 28.672c-7.168 3.328-10.24 6.4-8.6528 9.2672a5.12 5.12 0 0 1-2.0992 7.2192q-4.3008 2.7648 0 7.8848t1.4336 32.256q-2.8672 27.2384-2.8672 145.5616a468.1728 468.1728 0 0 0 6.4512 121.9072q6.4512 3.5328 0.768 9.984a16.7936 16.7936 0 0 0-0.768 18.688 436.8896 436.8896 0 0 1 6.5024 91.0336 349.5424 349.5424 0 0 1-2.8672 83.968q-4.3008 5.12 0 5.12c1.8432 0 2.8672 6.912 2.8672 20.7872s-0.512 28.416-1.4848 43.776a53.4016 53.4016 0 0 1-5.7344 27.2384c-3.84 5.6832-6.7072 8.4992-8.5504 8.4992s-1.9968 3.8912 0 11.52a17.664 17.664 0 0 1-5.12 18.6368c-5.12 4.8128-7.424 8.9088-6.4512 12.1344s-1.2288 7.7312-6.4512 13.0048a33.1776 33.1776 0 0 0-7.8848 24.32 43.2128 43.2128 0 0 1-11.4688 29.44l-10.24 14.336-10.24-10.24a243.5584 243.5584 0 0 1-12.1344-20.7872 55.1936 55.1936 0 0 0-25.1392-21.5552 52.6336 52.6336 0 0 1-21.504-15.0528 42.8032 42.8032 0 0 0-15.0528-13.6704 37.8368 37.8368 0 0 1-15.104-28.672 54.7328 54.7328 0 0 0-5.6832-22.8864 51.712 51.712 0 0 1-5.7856-22.9888 281.6 281.6 0 0 0-6.5024-33.6384 102.4 102.4 0 0 1-3.5328-27.2384 2043.5968 2043.5968 0 0 0-8.6528-308.3264q-1.4336-15.7696-4.352-157.7472-4.3008-233.728-7.1168-275.4048a152.7296 152.7296 0 0 0-8.6528-22.2208 32.2048 32.2048 0 0 1 1.536-28.0064z" fill="#FF4152" p-id="1161"></path></svg>