<svg t="1714155391162" class="icon" viewBox="0 0 1025 1024" version="1.1" xmlns="http://www.w3.org/2000/svg" p-id="1302" width="200" height="200"><path d="M642.199 264.355c103.083 12.38 181.101 82.799 178.262 164.974-0.637 17.597-4.826 34.308-12.231 49.898-4.748 14.14-11.93 28.358-21.681 41.742-28.651 39.49-70.917 60.535-106.238 56.42-18.922 17.117-51.516 26.523-87.361 22.716-30.468-3.194-56.616-15.222-73.01-31.423-43.004 7.403-90.091-30.436-107.96-88.702-7.636-24.919-8.718-49.782-4.368-71.376 6.715-79.057 87.712-140.676 188.553-145.859 0.433-4.45 0.788-8.55 0.912-12.132 0.534-15.63-1.322-42.232-5.476-79.841l65.574-3.856c-9.402 38.85-14.46 67.25-15.047 85.255-0.24 3.841-0.185 7.89 0.071 12.184z" fill="#FFECD6" p-id="1303"></path><path d="M608.702 610.447c-5.571-0.004-11.157-0.324-16.72-0.866-29.578-3.106-56.667-14.238-75.136-30.82-22.244 2.325-45.573-5.43-66.21-22.358-21.556-17.647-38.425-43.735-47.517-73.557-7.758-25.515-9.4-51.556-4.682-75.54 3.595-40.584 25.798-78.456 62.576-106.82 34.149-26.283 78.838-42.688 126.585-46.663 0.037-1.3 0.11-2.506 0.218-3.619 0.527-15.09-1.352-41.47-5.477-78.447l-1.107-9.859 88.083-5.212-2.959 12.383c-9.186 38.017-14.165 66.065-14.78 83.439-0.073 1.206-0.052 2.376-0.124 3.582 48.888 7.37 93.323 27.696 126.035 57.663 35.26 32.417 53.943 73.554 52.422 115.913-0.608 18.228-5 36.088-12.85 53.027-5.137 15.361-12.865 30.11-22.824 43.788-27.458 37.854-67.708 60.802-104.963 60.857-1.931-0.008-3.862-0.017-5.736-0.155-18.576 14.95-45.49 23.247-74.834 23.264z m-85.597-51.656l3.444 3.39c15.534 15.354 40.03 25.874 67.347 28.67 31.804 3.323 62.537-4.511 80.03-20.33l3.197-2.834 4.264 0.505c15.686 1.798 33.085-1.989 50.221-10.923 17.941-9.35 34.356-23.792 47.384-41.754 8.882-12.3 15.826-25.463 20.308-39.18l0.23-0.517 0.23-0.517c6.967-14.778 10.768-30.27 11.288-46.215 1.295-36.809-15.194-72.79-46.328-101.434-31.593-29.005-75.469-48.153-123.619-53.878l-7.86-0.946-0.39-7.99c-0.234-4.517-0.21-8.918-0.135-12.91 0.607-16.835 4.665-41.423 12.412-74.817l-43.029 2.592c3.381 33.086 4.874 56.507 4.426 71.246a219.038 219.038 0 0 1-0.884 12.765l-0.78 8.012-8.085 0.425c-47.057 2.425-91.193 17.76-124.235 43.298-32.648 25.172-52.299 58.53-55.395 93.995l-0.007 0.538-0.101 0.574c-4.25 21.02-2.772 44.124 4.134 66.86 16.163 52.708 58.872 88.907 97.316 82.183l4.617-0.808z" fill="#333333" p-id="1304"></path><path d="M414.282 452.21c12.106 53.302 32.473 88.223 61.288 104.69 28.816 16.467 42.72 19.485 41.657 9.181l45.807 20.55 213.664-42.493L815.01 398.11l-30.302 39.375-37.097 11.348-37.623 58.252c-10.697-55.771-18.936-82.815-24.774-81.002-5.839 1.812-9.125 32.316-9.918 91.64l-57.801 52.288c-19.789-8.578-32.583-29.91-38.197-64.067-8.495-51.153-8.048-87.101-11.983-85.912-3.936 1.19-37.716 56.895-23.631 102.796 9.378 30.57 16.806 45.178 22.472 43.753-9.943-0.789-21.626-10.015-34.918-27.621-20.042-26.262-14.27-14.017-34.232-55.413-13.357-27.542-20.066-44.462-20.278-50.593l-8.114 100.803-34.974-62.09-19.358-19.456z" fill="#D2967B" p-id="1305"></path><path d="M679.874 587.41c-3.417 0.027-6.604-1.856-8.36-5.038-2.424-4.64-0.619-10.26 3.892-12.74 37.138-19.613 56.438-54.443 58.985-106.407 2.569-52.186-30.811-115.424-99.235-187.918-3.588-3.765-3.411-9.724 0.353-13.311 3.765-3.587 9.724-3.411 13.31 0.353 35.723 37.81 62.594 73.768 79.904 106.863 17.69 33.806 25.861 65.696 24.507 94.815-2.86 58.404-26.091 99.456-69.011 122.145-1.387 0.853-2.859 1.204-4.345 1.239zM518.27 573.822c-2.692-0.038-5.498-1.21-7.306-3.408-40.97-50.363-55.24-98.978-42.415-144.819 12.55-44.878 51.858-98.742 120.006-164.535 3.765-3.587 9.688-3.504 13.275 0.26 3.587 3.765 3.505 9.688-0.26 13.275-64.78 62.571-103.418 115.107-114.91 156.045-5.456 19.554-5.074 40.08 1.115 60.948 6.405 21.428 19.09 43.873 37.75 66.81 3.25 4 2.628 9.916-1.337 13.26a8.553 8.553 0 0 1-5.917 2.164z" fill="#333333" p-id="1306"></path><path d="M454.292 282.97c94.96 41.978 148.98 132.13 122.238 209.884-5.753 16.642-14.645 31.398-26.285 44.141-8.674 12.135-19.7 23.632-32.938 33.58-38.945 29.388-85.516 37.155-118.09 22.893-23.1 10.838-57.02 10.302-90.186-3.818-28.204-11.962-49.692-31.11-60.633-51.396-43.289-5.494-77.256-55.446-77.308-116.391-0.018-26.062 6.217-50.156 16.69-69.534 29.536-73.64 125.01-108.885 222.96-84.358 1.715-4.13 3.253-7.946 4.42-11.336 5.08-14.79 11.082-40.772 18.106-77.953l63.835 15.485c-20.35 34.403-33.49 60.083-39.315 77.13-1.252 3.596-2.384 7.485-3.494 11.673z" fill="#FFECD6" p-id="1307"></path><path d="M362.014 610.504c-18.146-0.034-37.676-4.081-56.68-12.075-27.377-11.619-50.027-30.184-62.841-51.442-21.952-4.28-41.994-18.516-56.78-40.738-15.455-23.179-23.96-53.058-23.935-84.236 0.04-26.668 6.084-52.051 17.608-73.608 15.304-37.76 47.609-67.485 91.073-83.857 40.341-15.15 87.874-17.773 134.697-7.614a52.864 52.864 0 0 1 1.266-3.397c4.916-14.278 10.832-40.053 17.698-76.621l1.824-9.751 85.758 20.768-6.45 10.977c-19.9 33.67-32.862 59.036-38.53 75.471-0.421 1.133-0.744 2.258-1.166 3.39 44.598 21.341 81.149 53.77 103.67 91.993 24.24 41.31 30.08 86.111 16.241 126.174-5.91 17.254-15.332 33.05-27.792 46.953-9.403 13.188-21.106 25.033-34.63 35.201-27.517 20.77-59.331 31.716-88.4 31.744-12.433-0.033-24.4-2.003-35.216-6.158-11.214 4.493-23.984 6.79-37.415 6.826z m-12.906-340.83c-25.364-0.03-49.93 4.194-72.107 12.46-38.58 14.527-67.125 40.682-80.455 73.692l-0.165 0.513-0.264 0.52c-10.21 18.858-15.551 41.386-15.594 65.146 0.046 55.131 30.306 102.235 69.036 107.045l4.85 0.563 2.303 4.25c10.366 19.224 30.717 36.446 56.022 47.107 29.442 12.477 61.124 13.97 82.477 3.956l3.886-1.775 3.93 1.73c14.475 6.306 32.22 7.771 51.22 4.237 19.89-3.696 39.81-12.708 57.521-26.076 12.09-9.165 22.58-19.723 30.876-31.53l0.371-0.427 0.371-0.427c10.983-12.096 19.147-25.798 24.307-40.895 12-34.822 6.75-74.051-14.647-110.548-21.732-36.974-58.093-68.113-102.465-87.666l-7.241-3.202 1.964-7.756c1.096-4.387 2.406-8.59 3.645-12.385 5.502-15.922 16.572-38.249 33.744-67.919l-41.907-10.101c-6.333 32.721-11.753 55.555-16.59 69.526a219.038 219.038 0 0 1-4.578 11.949l-3.089 7.433-7.855-1.956c-20-5.018-40.016-7.427-59.566-7.464z" fill="#333333" p-id="1308"></path><path d="M181.403 395.88c-4.007 54.513 5.26 93.862 28.002 118.035 22.742 24.172 35.157 31.123 37.152 20.959l37.798 33.044 216.75 21.833 79.334-128.447-40.49 28.795-38.794 0.006-53.01 44.707c6.075-56.462 6.103-84.732-0.01-84.706-6.113 0.027-18.174 28.237-36.277 84.737l-70.563 33.103c-16.416-13.989-22.414-38.13-17.796-72.435 6.831-51.402 17.769-85.648 13.658-85.661-4.111-0.014-52.702 43.382-52.653 91.395 0.03 31.976 2.864 48.118 8.698 48.411-9.278-3.661-17.752-15.9-25.316-36.623-11.489-30.974-9.55-17.577-16.535-63-4.721-30.244-6.19-48.386-4.6-54.311l-37.324 94.132-15.293-69.602-12.73-24.372z" fill="#D2967B" p-id="1309"></path><path d="M398.596 603.235c-4.41 0.007-8.338-3.126-9.257-7.673-0.962-5.146 2.408-9.992 7.447-11.047 41.25-7.896 69.89-35.561 87.518-84.51 17.714-49.156 4.282-119.39-39.95-208.622-2.33-4.649-0.419-10.296 4.23-12.626s10.296-0.419 12.626 4.23c23.107 46.602 38.29 88.845 45.168 125.555 7.033 37.5 5.523 70.386-4.286 97.837-19.81 55.016-54.029 87.482-101.707 96.63-0.591 0.142-1.19 0.184-1.789 0.226zM248.034 543.091c-3.712-0.041-7.27-2.198-8.726-5.805-24.455-60.141-23.887-110.804 1.779-150.892 25.123-39.248 78.461-79.266 162.868-122.259 4.649-2.33 10.289-0.519 12.619 4.13s0.519 10.289-4.13 12.619c-80.243 40.897-132.553 79.84-155.513 115.63-10.933 17.104-16.57 36.845-16.752 58.61-0.14 22.365 5.43 47.538 16.567 74.928 1.938 4.776-0.386 10.251-5.155 12.29-1.17 0.482-2.353 0.765-3.557 0.749z" fill="#333333" p-id="1310"></path><path d="M977.538 377.828l45.154 111.72c1.188 2.89-0.212 6.165-3.103 7.353-0.457 0.226-0.94 0.356-1.352 0.363l-480.055 61.44 45.342-80.374 387.433-103.812c2.679-0.821 5.54 0.586 6.58 3.31z" fill="#55AB68" p-id="1311"></path><path d="M538.06 558.634l45.342-80.374 392.262-105.107 49.76 123.116-487.365 62.365z m57.838-64.26l-23.012 40.848 426.006-54.516-34.396-85.097-368.598 98.765z" fill="#333333" p-id="1312"></path><path d="M902.319 230.512l80.64 89.539c2.107 2.31 1.91 5.865-0.4 7.97-0.352 0.37-0.761 0.656-1.146 0.804l-430.09 221.924 15.118-91.035 328.562-230.062c2.211-1.548 5.382-1.205 7.316 0.86z" fill="#55AB68" p-id="1313"></path><path d="M551.24 550.806l15.119-91.035 332.658-232.93 88.867 98.673L551.24 550.806z m32.373-80.166l-7.653 46.255 381.67-196.931-61.428-68.2L583.613 470.64z" fill="#333333" p-id="1314"></path><path d="M464.22 446.11c82.215-31.243 142.386-57.822 180.487-79.833 48.24-27.834 123.571-78.973 226.09-153.445 2.516-1.813 5.537-2.519 8.578-1.988 6.082 1.062 10.23 6.887 9.195 13.066l-15.746 89.215a28.494 28.494 0 0 1-14.052 19.812L609.095 471.375l285.446-4.947c8.561-0.12 16.675 3.503 22.075 10.132l58.715 69.988c3.96 4.736 3.402 11.926-1.43 15.912-2.272 1.955-5.24 2.854-8.204 2.613-138.785-12.196-235.429-18.187-289.912-18.289-39.66-0.036-99.752 6.748-180.056 20.397l-347.83 93.2c-20.452-16.053-33.395-34.222-38.779-54.313-5.383-20.091-3.258-42.298 6.427-66.427l348.673-93.53z" fill="#F1FFCE" p-id="1315"></path><path d="M879.151 223.535l-10.918 80.57c-0.881 6.76-4.855 12.793-10.738 16.337l-270.73 163.025-83.936-55.155c72.566-25.139 119.413-43.489 140.637-55.077 21.18-11.369 99.732-61.301 235.685-149.7z" fill="#8BDA36" p-id="1316"></path><path d="M150.39 648.43l343-91.907c81.419-13.74 142.02-20.558 182.382-20.606 54.36 0.032 149.96 5.992 286.923 17.95 2.452-1.278 2.599-2.663 1.857-3.5L909.65 484.95c-4.135-5-10.368-7.782-16.867-7.697l-326.645 5.737 285.751-158.354c5.672-3.176 9.678-8.7 10.759-15.099l14.632-83.326c0.198-1.192-0.621-2.318-1.716-2.542-102.726 73.698-177.291 124.219-225.338 152-38.725 22.386-99.354 49.191-182.052 80.564l-344.423 92.392c-7.229 20.158-8.502 38.202-4.102 54.623 4.277 16.35 14.524 31.41 30.742 45.183z m489.018-291.5C686.759 329.645 760.7 279.5 861.23 206.492c5.2-3.774 11.724-5.315 18.025-4.208 12.918 2.232 21.493 14.532 19.26 27.45l-14.631 83.326c-2.259 12.822-10.15 23.943-21.518 30.198L652.15 459.735l240.246-4.017c12.973-0.267 25.367 5.42 33.734 15.394l54.902 65.419c8.393 10.07 7.116 25.01-2.955 33.403-4.807 4.083-11.034 5.959-17.276 5.457-136.428-11.895-231.519-17.888-285.029-17.837-38.836-0.05-98.226 6.65-177.757 20.092l-352.563 94.469-4.203-3.325c-22.174-17.456-36.434-37.447-42.464-59.953-6.03-22.506-3.677-46.948 6.798-73.152l1.978-4.982 353.433-94.702c81.416-31.133 141.033-57.46 178.414-79.07z" fill="#333333" p-id="1317"></path><path d="M406 522.4c19.2 8.6 34.2 23.8 42.8 42.2 4.5-0.7 25.3-7.3 62.6-19.6 34.1-11.3 70.8 7.1 82.1 41.2 3.7 11.2 4.3 23.2 1.7 34.7L592 635c-11.3 50.4-61.3 82.2-111.7 70.9-2.3-0.5-4.7-1.1-7-1.8l-51-15.6c-3.6-1.1-7-2.4-10.4-3.9-22.4 14.4-50.8 19.2-78.2 10.9l-45-13.8c-0.6 1.1-1.3 2.3-2 3.4l22.1 31.6c16 22.8 10.5 54.1-12.3 70.1-4.8 3.4-10.2 5.9-15.9 7.4-29.8 8-60.2-4-77.2-27.7-24.1 14-55.5 10.5-75.9-10.3-4.5-4.5-8.2-9.7-11.1-15.4-21.4-41.9-4.7-93.2 37.2-114.5l53.8-27.4c-1.2-9.5-0.9-19.4 1-29.2l0.2-0.9c7.5-38.8 40.3-66.3 78-68.7 3.4-11.6 10.7-22.2 21.5-29.5 24.5-16.5 57.8-10.1 74.3 14.4l17.3 25.6c2.8 3.6 4.8 7.7 6.3 11.8z" fill="#D6A97C" p-id="1318"></path><path d="M271 679.1c-21.7 0-38.4-5.7-49.6-16.9-13.6-13.6-18.4-34.3-14.3-61.6l18.6 2.8c-3.2 21.1-0.2 36.3 9 45.5 9.3 9.3 25.4 12.9 47.9 10.8l1.8 18.7c-4.7 0.4-9.2 0.7-13.4 0.7zM403.6 684.1c-6.8-4.5-4.9-13.4-3.8-18.8 1.1-5.1 3-12 5.9-20.9-1.5-2.7-4.5-7.2-6.6-10.5-9.3-14.3-12.8-19.6-10.3-25.8 5.8-14.9 12.2-30.1 20.3-38 12.9-12.5 37.6-16.2 75.4-11.1l-2.5 18.6c-17.6-2.4-48.8-4.7-59.8 5.9-5.2 5.1-11.2 19.3-14.7 28.2 1.7 3.1 5.1 8.3 7.4 11.8 8.7 13.3 11.6 17.8 9.7 23.5-6.8 21-7.1 26-7.1 26.7 0-0.8-0.7-3.6-3.5-5.5l-10.4 15.9z" fill="#C59566" p-id="1319"></path><path d="M280 680.1c-30.9-35.6-44.4-60.4-42.5-78.2 0.6-5.7 4.5-10.1 10.4-11.8 3.2-0.9 6.5-1 9.8-1.1 1.9 0 4.9-0.1 6.3-0.5 2.2-6.4 1.6-14.1 1-21.5-0.9-11.6-1.9-24.7 8.3-33.9 11.7-10.6 41.5-13.6 66.1-15.2l1.2 18.8c-43 2.6-52.7 8.6-54.6 10.4-3.2 2.9-2.9 8.9-2.2 18.5 0.7 9.4 1.5 20.1-2.6 30.7-4.3 11.1-16.5 11.4-23 11.5-0.5 0-1.2 0-1.8 0.1 1.2 8.7 8.6 26.2 37.9 59.9L280 680.1z" fill="#C59566" p-id="1320"></path><path d="M356.3 537.1c-7.4 0-14.9-0.9-22.3-2.7-22.2-5.3-37.3-16.7-45-34l17.2-7.6c5.2 11.8 15.8 19.4 32.2 23.3 17.4 4.1 34 2.4 51-5.3l7.8 17.1c-13.5 6.1-27.2 9.2-40.9 9.2zM230.3 769c-10.3 0-20.4-3.6-30-10.8l11.3-15.1c12.6 9.4 25 9.3 39.1-0.2 14.4-9.8 20.2-24 17.8-43.4l18.7-2.4c3.4 26.7-5.3 47.3-25.8 61.3-10.5 7.1-20.9 10.6-31.1 10.6z" fill="#C59566" p-id="1321"></path><path d="M542.6 554.6c148.9-8 241.7-10.7 278.3-8 36.7 2.7 72.6 13.9 107.9 33.6-10.1 13.4-17.4 20.5-22.1 21.5s-131.4-3.3-380.2-12.6l16.1-34.5z" fill="#8BDA36" p-id="1322"></path><path d="M902.1 611.2c-17.5 0-85.9-1.8-375.9-12.7L512 598l24.4-52.4 5.6-0.3c150.7-8.1 242.1-10.8 279.5-8 37.9 2.8 75.5 14.5 111.8 34.8l9.4 5.3-6.5 8.6c-15.2 20.2-22.5 24-27.7 25-0.6 0-1.3 0.2-6.4 0.2z m2.4-18.7zM541 580.2c281.4 10.5 354.2 12.5 363.8 12.1 0.9-0.5 3.8-2.4 9.5-9.2-30.8-15.7-62.5-24.9-94.2-27.2-35.6-2.6-127 0-271.5 7.7l-7.6 16.6z" fill="#333333" p-id="1323"></path><path d="M259.3 795.4c-22.9 0-45.1-11-58.7-30.1-24.7 14.3-55.9 10.1-75.9-10.3-4.5-4.5-8.2-9.7-11.1-15.4-10.3-20.3-12.1-43.3-5.1-65 7-21.6 22.1-39.2 42.3-49.6l53.8-27.4c-1.2-9.7-0.8-19.6 1-29.2 7.5-38.5 39.6-67.2 78.2-69.7 3.5-12 11.1-22.5 21.5-29.5 24.5-16.5 57.8-10 74.3 14.4l17.3 25.6c2.5 3.8 4.6 7.8 6.1 12.1 18.8 8.4 34 23.4 42.8 42.2 4.4-0.7 25.5-7.3 62.5-19.6 16.5-5.5 34.1-4.2 49.6 3.6 15.5 7.8 27.1 21.1 32.5 37.6 3.7 11.2 4.3 23.2 1.7 34.7l-3.2 14.1c-9.7 43.5-48.5 73.1-91.3 73.1-6.7 0-13.6-0.7-20.4-2.3-2.3-0.5-4.7-1.1-7-1.8l-51-15.6c-3.5-1.1-7-2.4-10.4-3.9-23.2 15-51.7 18.9-78.2 10.9l-45-13.8c-0.6 1.1-1.3 2.3-2 3.4l22.1 31.6c7.7 11 10.7 24.4 8.4 37.6-2.3 13.2-9.7 24.8-20.7 32.5-4.8 3.4-10.2 5.9-15.9 7.4-5.8 1.6-12 2.4-18.2 2.4z m-53.3-55l9.9 13.9c12.8 17.9 35.7 26.1 57 20.4 3.6-1 6.9-2.5 9.9-4.6 6.9-4.8 11.5-12.1 12.9-20.4 1.5-8.3-0.4-16.7-5.2-23.5l-29.3-41.8 6.6-10.6c0.5-0.8 1-1.6 1.4-2.4l7.4-13.4 59.7 18.3c21.1 6.5 43.9 3.3 62.5-8.7l8.5-5.5 9.3 4.1c2.7 1.2 5.5 2.2 8.3 3.1l51 15.6c1.8 0.6 3.7 1.1 5.6 1.5 40.2 9 80.3-16.4 89.3-56.6l3.2-14.1c1.8-8.2 1.4-16.7-1.2-24.6-3.9-11.7-12.1-21.2-23.1-26.7-11-5.5-23.5-6.4-35.2-2.5-50.4 16.7-61.2 19.7-65.5 20.4l-14 2.2-6-12.9c-6.9-14.7-18.7-26.4-33.4-33l-7.3-3.3-2.7-7.6c-1-2.7-2.3-5.4-4-7.8l-17.3-25.6c-5.2-7.7-13.1-12.9-22.2-14.7-9.1-1.8-18.4 0.1-26.1 5.3-6.8 4.6-11.7 11.2-13.9 19.1l-3.7 12.7-13.2 0.9c-30 2-55.1 24.4-60.9 54.5-1.5 7.7-1.8 15.6-0.8 23.4l1.6 13.1-65.6 33.4c-32.6 16.6-45.6 56.6-29 89.2 2 4 4.6 7.6 7.7 10.8 14 14.3 35.8 17.2 53.1 7.2l14.7-8.8z" fill="#333333" p-id="1324"></path><path d="M553.941837 568.473386a44.2 65.8 25 1 0-55.616563 119.270105 44.2 65.8 25 1 0 55.616563-119.270105Z" fill="#EED954" p-id="1325"></path><path d="M511.276 709.455c-7.292 0.02-14.403-1.53-20.928-4.573-15.77-7.354-26.564-22.538-30.34-42.836-3.473-19.053-0.302-40.524 9.038-60.553 9.298-19.94 23.75-36.26 40.577-45.847 17.885-10.197 36.456-11.689 52.316-4.293 15.77 7.354 26.564 22.538 30.34 42.836 3.473 19.053 0.302 40.524-9.038 60.553-9.298 19.94-23.75 36.26-40.578 45.847-10.576 5.881-21.232 8.857-31.387 8.866z m29.626-143.748c-7.068 0.015-14.571 2.143-22.06 6.374-13.483 7.616-25.199 20.91-32.848 37.315-7.692 16.494-10.302 33.924-7.47 49.147 2.577 14.112 9.66 24.476 19.72 29.167 10.151 4.734 22.553 3.455 35.02-3.64 13.482-7.617 25.198-20.91 32.848-37.315 7.691-16.495 10.302-33.925 7.47-49.148-2.578-14.111-9.661-24.476-19.721-29.167a29.38 29.38 0 0 0-12.96-2.733z" fill="#333333" p-id="1326"></path><path d="M511.562 695.355c-5.323 0.056-10.5-1.145-15.304-3.385-12.144-5.663-20.261-17.834-22.858-34.271-2.487-15.725 0.558-33.614 8.377-50.38 7.818-16.767 19.655-30.557 33.209-38.8 14.17-8.62 28.71-10.225 40.946-4.52 12.144 5.663 20.261 17.834 22.858 34.271 2.487 15.725-0.558 33.614-8.377 50.38-7.818 16.767-19.655 30.557-33.209 38.801-8.667 5.337-17.366 7.901-25.642 7.904z m29.063-125.032c-6.53 0.044-13.586 2.16-20.762 6.428-12.013 7.307-22.503 19.628-29.519 34.673-14.242 30.543-9.78 62.856 9.977 72.069 3.626 1.69 7.45 2.48 11.431 2.461 17.985 0.001 38.568-16.22 50.19-41.143 7.058-15.135 9.754-31.091 7.587-44.9-2.016-13.188-8.32-22.858-17.473-27.127-3.625-1.69-7.45-2.48-11.43-2.461z" fill="#DAB95B" p-id="1327"></path><path d="M640.2 627.9c7.2-3.3 15.2 10.2 23.7 10.8 8.5 0.5 113.2-6.3 142.9 8.9 19.8 10.2 39.8 31.5 59.9 64.2 13.9 3.8 20.8 7.1 20.8 10 0 2.9-6.9 8.7-20.8 17.6-34.3 26.5-71.8 37.2-112.4 32.1-40.6-5.1-86.8-32-138.5-80.6 0.1-11.4 2.1-22.3 6.1-32.6 6.1-15.6 11.2-27 18.3-30.4z" fill="#FFECD6" p-id="1328"></path><path d="M637.9 634.9c-3.2 23.4-1.8 38.3 4.3 44.8 9.1 9.8 61.2 41.2 114.3 49.4 35.4 5.5 71.3-0.3 107.9-17.3h14.5l8.4 17.3c-48.2 34.4-87.2 49.1-116.8 44.1-29.6-5-81.5-33.2-155.5-84.6l14-53.8h8.9z" fill="#E1A575" p-id="1329"></path><path d="M642 636.7c0.1 0 0.2 0 0.3 0.1 0.6 0.1 1.3 0 1.9-0.3-0.4 0.2-0.8 0.5-1.2 0.8-0.3-0.2-0.5-0.3-0.7-0.4-0.1-0.1-0.2-0.1-0.3-0.2z m-11.2 24.9c-3.1 8-4.9 16.5-5.4 25.3 49.1 45.6 92.6 70.6 130.1 75.3C793.6 767 828.6 757 861 732l0.7-0.5c4.7-3 8.6-5.7 11.5-7.9-2.5-0.9-5.5-1.8-9-2.7l-3.6-1-1.9-3.2c-19.4-31.3-38.2-51.5-56.2-60.8-9.9-5.1-32.6-8-63.8-8.8-16.3-0.4-33-0.2-52.9 0.3-3.4 0.1-13 0.4-14.3 0.4-4.6 0.1-6.8 0.2-8.2 0.1-3.4-0.2-6.5-1.3-9.6-3.1-2-1.2-3.6-2.3-6.4-4.5-2.4-1.9-3.5-2.7-4.3-3.2-2.9 2.7-6.6 9.9-12.2 24.5z m122.4 119.2c-42.9-5.4-90.7-33.2-143.7-83.1l-3-2.8v-4.1c0.1-12.6 2.4-24.6 6.8-35.9 3.8-9.8 6.4-15.8 9.2-20.9 4-7.1 8.2-11.9 13.8-14.5 4.8-2.3 9.7-1.7 14.5 0.7 2.5 1.3 3.9 2.2 8.2 5.6 2.1 1.6 3.2 2.4 4.3 3 0.5 0.3 0.9 0.5 1.2 0.6 0.7 0.1 2.9 0.1 6.7 0 1.3 0 10.9-0.3 14.3-0.4 20.2-0.6 37.1-0.8 53.9-0.3 34.1 0.8 58.6 4 71.9 10.8 20.9 10.7 41.3 32.3 61.7 64.5 5.7 1.7 10.2 3.3 13.6 4.9 2.5 1.2 4.5 2.4 6.1 3.9 2.7 2.4 4.4 5.4 4.4 9.3 0 5.3-2.9 9-8.5 13.7-3.8 3.2-9.2 7-16.3 11.6-36.3 27.5-76.1 38.8-119.1 33.4z" fill="#333333" p-id="1330"></path></svg>