<svg t="1714155411921" class="icon" viewBox="0 0 1024 1024" version="1.1" xmlns="http://www.w3.org/2000/svg" p-id="1471" width="200" height="200"><path d="M902.22 478.49c0.01-8.59-4.16-16.99-10.87-22.27-1.34-2.95-2.85-5.82-4.24-8.59-2.72-5.42-5.73-10.68-9.02-15.77-6.82-10.56-14.71-20.57-23.43-29.62-17.12-17.77-37.89-32.3-60.58-42-10.29-4.4-22.65-8.83-33.24-6.38-9.79-2.67-19.96-3.69-30.11-2.59-4.84 0.53-10.35 2.88-13.9 6.72-2.47-1.38-5.21-2.18-8-2.11-8.63 0.22-16.5 3.09-24.43 6.22-5.46 2.16-10.61 4.46-15.49 7.34-3.81-2.02-8.44-2.54-13.27-1.86-20.41 2.87-40.03 9.94-58.28 19.43-16.68 8.67-33.65 19.68-46.13 33.92-13.96 15.94-26.46 40.24-15.91 61.16 5.1 10.12 15.4 15.81 25.97 18.68 10.32 2.8 20.91 4.82 31.33 7.19 1.65 0.37 3.29 0.75 4.94 1.12h-64.54c-0.45 5.11-0.38 10.4 0.3 15.8l28.21 222.52c3.27 25.82 28.16 46.14 55.42 46.14h194.02c27.27 0 52.15-20.32 55.42-46.14l28.21-222.52c0.69-5.4 0.75-10.69 0.3-15.8h-1.21c0-0.01 0.01-0.01 0.02-0.02 1.97-3.04 3-6.71 3.03-10.38a63.03 63.03 0 0 0 2.16-4.07c1.09-2.28 1.65-4.73 1.67-7.13 1.12-2.81 1.65-5.91 1.65-8.99zM449.89 777.29H200.84l-46.33-471.33h341.72z" fill="#F8E868" p-id="1472"></path><path d="M466.53 608.03l17.43-177.32H166.77l17.44 177.32z" fill="#FFA621" p-id="1473"></path><path d="M461.5 440.64H207.38c-3.87 0-7-3.13-7-7s3.13-7 7-7H461.5c3.87 0 7 3.13 7 7s-3.14 7-7 7zM445.68 617.96H189.53c-3.87 0-7-3.13-7-7s3.13-7 7-7h256.16c3.87 0 7 3.13 7 7s-3.14 7-7.01 7zM787.61 787.37H593.59c-14.87 0-29.49-5.32-41.17-14.99-11.87-9.82-19.39-23.05-21.2-37.27l-6.78-53.49a6.987 6.987 0 0 1 6.06-7.82c3.83-0.49 7.34 2.23 7.82 6.06l6.78 53.49c2.8 22.07 24.54 40.02 48.48 40.02H787.6c23.93 0 45.68-17.95 48.48-40.02l28.21-222.52c0.6-4.75 0.69-9.56 0.27-14.3a6.998 6.998 0 0 1 6.36-7.59 6.993 6.993 0 0 1 7.59 6.36c0.51 5.74 0.4 11.56-0.33 17.3l-28.21 222.52c-1.8 14.21-9.33 27.45-21.2 37.27-11.67 9.65-26.3 14.98-41.16 14.98zM527.2 654.86c-3.47 0-6.49-2.58-6.94-6.12l-5.05-39.83a6.987 6.987 0 0 1 6.06-7.82c3.83-0.49 7.34 2.23 7.82 6.06l5.05 39.83a6.987 6.987 0 0 1-6.06 7.82c-0.29 0.04-0.58 0.06-0.88 0.06zM516.58 571.07c-3.47 0-6.49-2.58-6.94-6.12L503 512.59a80.73 80.73 0 0 1-0.33-17.3c0.34-3.85 3.74-6.7 7.59-6.36 3.85 0.34 6.7 3.74 6.36 7.59-0.42 4.74-0.33 9.56 0.27 14.3l6.64 52.36a6.987 6.987 0 0 1-6.06 7.82c-0.3 0.05-0.59 0.07-0.89 0.07z" fill="#7C4924" p-id="1474"></path><path d="M690.6 529.3c-77.4 0-145.86-8.34-174.4-21.24a7.004 7.004 0 0 1-3.5-9.26c1.59-3.52 5.74-5.09 9.26-3.49 26.46 11.96 94.22 20 168.63 20 42.93 0 84.6-2.66 117.32-7.5 44.95-6.64 56.33-14.69 58.75-17a7 7 0 0 1 9.9 0.23 7 7 0 0 1-0.23 9.9c-20.42 19.48-110.59 28.36-185.73 28.36z" fill="#7C4924" p-id="1475"></path><path d="M143 798.44c2.6 37.69 30.83 67.63 64.99 67.63h646.78c34.16 0 62.39-29.94 64.99-67.63H143z" fill="#FF686E" p-id="1476"></path><path d="M821.01 854.82H491.64c-3.87 0-7-3.13-7-7s3.13-7 7-7h329.37c27.93 0 51.84-23.01 57.11-53.63h-761c5.27 30.61 29.18 53.63 57.11 53.63h148c3.87 0 7 3.13 7 7s-3.13 7-7 7h-148c-37.49 0-69.1-32.57-71.97-74.15-0.13-1.94 0.54-3.84 1.87-5.26a6.99 6.99 0 0 1 5.12-2.22H886c1.94 0 3.79 0.81 5.12 2.22s2 3.32 1.87 5.26c-2.88 41.58-34.49 74.15-71.98 74.15z" fill="#7C4924" p-id="1477"></path><path d="M435.6 854.82h-56.04c-3.87 0-7-3.13-7-7s3.13-7 7-7h56.04c3.87 0 7 3.13 7 7s-3.13 7-7 7z" fill="#7C4924" p-id="1478"></path><path d="M495 253.6l-16.84-57.98H269.93l-13.68 29.23h-40.89l-7.65-23.68-4.23-5.56H160.1l-16.84 57.98c-5.72 0.91-10.13 5.88-10.13 11.84v28.52c0 6.6 5.4 12 12 12h348.01c6.6 0 12-5.4 12-12v-28.52c-0.01-5.95-4.42-10.92-10.14-11.83z" fill="#FFA621" p-id="1479"></path><path d="M428.51 784.29H179.46c-3.6 0-6.61-2.73-6.97-6.32l-21.94-223.16a6.994 6.994 0 0 1 6.28-7.65 6.994 6.994 0 0 1 7.65 6.28l21.32 216.85h236.36l45.71-465.02a7.01 7.01 0 0 1 6.97-6.32h3.15c2.76 0 5-2.24 5-5v-28.52c0-2.34-1.67-4.39-3.96-4.89a7.017 7.017 0 0 1-5.17-4.62l-16.16-48.31H269.51l-10.59 21.48a6.996 6.996 0 0 1-6.28 3.9h-37.29a7 7 0 0 1-6.31-3.97l-10.29-21.41h-49.04l-16.22 48.46a6.988 6.988 0 0 1-4.81 4.53 5.003 5.003 0 0 0-3.71 4.82v28.52c0 2.76 2.24 5 5 5h3.15c3.6 0 6.61 2.73 6.97 6.32l12.24 124.52a6.994 6.994 0 0 1-6.28 7.65 6.994 6.994 0 0 1-7.65-6.28l-11.65-118.48c-8.94-1.54-15.77-9.35-15.77-18.73v-28.52c0-7.17 4.07-13.64 10.27-16.85l16.79-50.18a7.014 7.014 0 0 1 6.64-4.78h58.48a7 7 0 0 1 6.31 3.97l10.29 21.41h28.53l10.59-21.48a6.996 6.996 0 0 1 6.28-3.9h197.58a7 7 0 0 1 6.64 4.78l16.68 49.85c6.52 3.09 10.93 9.76 10.93 17.19v28.52c0 9.38-6.83 17.19-15.77 18.73l-45.74 465.29a7.009 7.009 0 0 1-6.97 6.32z" fill="#7C4924" p-id="1480"></path><path d="M153.56 520.96c-3.56 0-6.6-2.7-6.96-6.32l-3.85-39.19a6.994 6.994 0 0 1 6.28-7.65 6.988 6.988 0 0 1 7.65 6.28l3.85 39.19a6.994 6.994 0 0 1-6.28 7.65c-0.23 0.02-0.46 0.04-0.69 0.04zM522.14 496.81c-13.6-6.68-14.6-25.39-11.5-38.45 3.03-12.77 10.4-23.94 19.35-33.37 20.46-21.53 48.54-35.96 76.6-44.84 14-4.43 28.49-7.71 43.18-8 9.64-0.19 9.67-15.19 0-15-31.71 0.61-64 12.22-91.37 27.67-26.94 15.2-55.11 38.44-62.35 70.05-4.41 19.3-1.23 45.21 18.51 54.89 8.65 4.24 16.26-8.7 7.58-12.95z" fill="#7C4924" p-id="1481"></path><path d="M663.91 512.58c-22.29-25.1-30.82-59.6-29.64-92.58 0.6-16.62 4.9-32.09 16.44-44.48 9.76-10.48 23.08-17.94 37.43-19.57 4.02-0.46 7.5-3.12 7.5-7.5 0-3.7-3.45-7.96-7.5-7.5-27.65 3.14-52.07 20.99-62.77 46.83-6.09 14.71-6.8 31.37-5.97 47.1 0.79 14.98 3.39 29.99 8.32 44.17 5.66 16.29 14.13 31.23 25.59 44.13 6.42 7.24 17-3.4 10.6-10.6z" fill="#7C4924" p-id="1482"></path><path d="M685.51 357.88c7.77 56.63 42.69 108.14 90.79 138.53 13.6 8.59 28.34 15.36 43.66 20.24 9.22 2.93 13.17-11.54 3.99-14.46-50.3-16-92.14-55.69-112.2-104.38-5.79-14.06-9.71-28.85-11.77-43.91-0.55-4-5.69-6.23-9.23-5.24-4.33 1.2-5.8 5.17-5.24 9.22z" fill="#7C4924" p-id="1483"></path><path d="M690.63 358.56c16.87-7.98 36.81-4.35 54.03 0.51 15.97 4.51 31.18 11.2 45.37 19.78 28.38 17.14 52.25 41.6 68.26 70.68 7.26 13.18 18.78 35.71 6.96 49.53-6.24 7.3 4.32 17.96 10.61 10.61 13.44-15.74 9.67-36.82 2.02-54.37-7.6-17.43-18.47-33.55-30.89-47.9-24.64-28.47-57.4-50.05-93.34-61.29-22.85-7.15-48.2-11.09-70.6-0.49-8.71 4.12-1.11 17.05 7.58 12.94z" fill="#7C4924" p-id="1484"></path><path d="M679.99 355.34c-8.86-1.82-14.75-10.31-18.04-18.74-7.57-19.42-5.75-42.54 5.82-59.87 11.57-17.34 32.94-28 53.64-25.61 17.29 2 33.28 12.98 41.36 28.39s8 34.82-0.2 50.16c-4.33 8.1-11.76 15.54-20.94 15.96" fill="#FF686E" p-id="1485"></path><path d="M656.07 350.32c-14.91-3.71-17.67-27.33-16.98-39.82 0.88-15.83 8.56-31.15 21.61-40.38 12.51-8.85 28.26-12.13 42.97-7.31 15.09 4.94 26.83 17.67 30.49 33.09 2.19 9.24 1.45 19.23-2.03 28.06-2.7 6.85-8.24 15.68-16.4 16.39-9.54 0.83-9.63 15.83 0 15 23.22-2.01 34.56-27.79 34.64-48.52 0.09-22.14-12.04-42.79-31.38-53.55-18.39-10.23-40.27-9.9-58.85-0.35-19.44 10-32.32 29.29-35.33 50.79-2.96 21.09 2.75 54.96 27.28 61.07 9.36 2.33 13.36-12.14 3.98-14.47z" fill="#7C4924" p-id="1486"></path><path d="M690.3 256.77c26.45-29.39 57.16-54.45 91.31-74.39 8.33-4.87 0.79-17.84-7.57-12.95-35.17 20.54-67.1 46.47-94.35 76.74-6.44 7.15 4.14 17.79 10.61 10.6z" fill="#7C4924" p-id="1487"></path><path d="M608.76 748.51c-3.53 0-6.57-2.67-6.95-6.26L582.82 564.1c-0.41-3.84 2.38-7.29 6.22-7.7a6.997 6.997 0 0 1 7.7 6.22l18.99 178.15c0.41 3.84-2.38 7.29-6.22 7.7-0.25 0.02-0.5 0.04-0.75 0.04zM755.58 748.1a7.004 7.004 0 0 1-6.94-7.99l25.41-177.35c0.55-3.83 4.1-6.48 7.92-5.94 3.83 0.55 6.48 4.09 5.94 7.92L762.5 742.1c-0.5 3.49-3.5 6-6.92 6zM684.39 749.01h-0.05a6.995 6.995 0 0 1-6.95-7.05l1.21-179.16c0.03-3.87 3.17-7 7.05-6.95 3.87 0.03 6.98 3.18 6.95 7.05l-1.21 179.16c-0.03 3.84-3.16 6.95-7 6.95z" fill="#FFA621" p-id="1488"></path><path d="M420.91 312.28H133.12c-3.87 0-7-3.13-7-7s3.13-7 7-7h287.79c3.87 0 7 3.13 7 7s-3.13 7-7 7z" fill="#7C4924" p-id="1489"></path><path d="M207.7 456.52v67.76c0 9.65 15 9.67 15 0v-67.76c0-9.65-15-9.66-15 0zM215.2 573.49c9.65 0 9.67-15 0-15-9.65 0-9.67 15 0 15z" fill="#FFFFFF" p-id="1490"></path></svg>